<mxfile host="app.diagrams.net" modified="2020-08-17T20:32:50.924Z" agent="5.0 (Macintosh; Intel Mac OS X 10_15_6) AppleWebKit/537.36 (KHTML, like Gecko) Chrome/84.0.4147.125 Safari/537.36" etag="nY96bvlsnGdTYil0_1EH" version="13.6.2" type="github">
  <diagram id="w452MX66BrRLb88p1Ve1" name="Page-1">
    <mxGraphModel dx="1298" dy="763" grid="1" gridSize="10" guides="1" tooltips="1" connect="1" arrows="1" fold="1" page="1" pageScale="1" pageWidth="850" pageHeight="1100" math="0" shadow="0">
      <root>
        <mxCell id="0" />
        <mxCell id="1" parent="0" />
        <mxCell id="IGrlOjgnraixl69V8WBD-7" style="edgeStyle=orthogonalEdgeStyle;rounded=0;orthogonalLoop=1;jettySize=auto;html=1;entryX=0;entryY=0.5;entryDx=0;entryDy=0;" edge="1" parent="1" source="IGrlOjgnraixl69V8WBD-1" target="IGrlOjgnraixl69V8WBD-6">
          <mxGeometry relative="1" as="geometry" />
        </mxCell>
        <mxCell id="IGrlOjgnraixl69V8WBD-1" value="Read Extraction files" style="rounded=0;whiteSpace=wrap;html=1;" vertex="1" parent="1">
          <mxGeometry x="200" y="220" width="120" height="60" as="geometry" />
        </mxCell>
        <mxCell id="IGrlOjgnraixl69V8WBD-4" style="edgeStyle=orthogonalEdgeStyle;rounded=0;orthogonalLoop=1;jettySize=auto;html=1;entryX=0.008;entryY=0.65;entryDx=0;entryDy=0;entryPerimeter=0;" edge="1" parent="1" source="IGrlOjgnraixl69V8WBD-2" target="IGrlOjgnraixl69V8WBD-3">
          <mxGeometry relative="1" as="geometry" />
        </mxCell>
        <mxCell id="IGrlOjgnraixl69V8WBD-5" style="edgeStyle=orthogonalEdgeStyle;rounded=0;orthogonalLoop=1;jettySize=auto;html=1;exitX=1;exitY=0.25;exitDx=0;exitDy=0;entryX=0;entryY=0.5;entryDx=0;entryDy=0;" edge="1" parent="1" source="IGrlOjgnraixl69V8WBD-2" target="IGrlOjgnraixl69V8WBD-1">
          <mxGeometry relative="1" as="geometry" />
        </mxCell>
        <mxCell id="IGrlOjgnraixl69V8WBD-13" style="edgeStyle=orthogonalEdgeStyle;rounded=0;orthogonalLoop=1;jettySize=auto;html=1;exitX=1;exitY=0.25;exitDx=0;exitDy=0;entryX=0;entryY=0.6;entryDx=0;entryDy=0;entryPerimeter=0;" edge="1" parent="1" source="IGrlOjgnraixl69V8WBD-2" target="IGrlOjgnraixl69V8WBD-12">
          <mxGeometry relative="1" as="geometry" />
        </mxCell>
        <mxCell id="IGrlOjgnraixl69V8WBD-2" value="Comparison" style="rounded=1;whiteSpace=wrap;html=1;" vertex="1" parent="1">
          <mxGeometry x="30" y="310" width="120" height="60" as="geometry" />
        </mxCell>
        <mxCell id="IGrlOjgnraixl69V8WBD-9" style="edgeStyle=orthogonalEdgeStyle;rounded=0;orthogonalLoop=1;jettySize=auto;html=1;entryX=0;entryY=0.5;entryDx=0;entryDy=0;" edge="1" parent="1" source="IGrlOjgnraixl69V8WBD-3" target="IGrlOjgnraixl69V8WBD-6">
          <mxGeometry relative="1" as="geometry" />
        </mxCell>
        <mxCell id="IGrlOjgnraixl69V8WBD-3" value="Read Control files" style="rounded=0;whiteSpace=wrap;html=1;" vertex="1" parent="1">
          <mxGeometry x="200" y="400" width="120" height="60" as="geometry" />
        </mxCell>
        <mxCell id="IGrlOjgnraixl69V8WBD-11" style="edgeStyle=orthogonalEdgeStyle;rounded=0;orthogonalLoop=1;jettySize=auto;html=1;exitX=1;exitY=0.5;exitDx=0;exitDy=0;entryX=0;entryY=0.5;entryDx=0;entryDy=0;" edge="1" parent="1" source="IGrlOjgnraixl69V8WBD-6" target="IGrlOjgnraixl69V8WBD-10">
          <mxGeometry relative="1" as="geometry" />
        </mxCell>
        <mxCell id="IGrlOjgnraixl69V8WBD-6" value="Tieout the data" style="rounded=0;whiteSpace=wrap;html=1;" vertex="1" parent="1">
          <mxGeometry x="400" y="310" width="120" height="60" as="geometry" />
        </mxCell>
        <mxCell id="IGrlOjgnraixl69V8WBD-10" value="Log the results" style="rounded=0;whiteSpace=wrap;html=1;" vertex="1" parent="1">
          <mxGeometry x="580" y="310" width="120" height="60" as="geometry" />
        </mxCell>
        <mxCell id="IGrlOjgnraixl69V8WBD-12" value="Datamart" style="shape=cylinder2;whiteSpace=wrap;html=1;boundedLbl=1;backgroundOutline=1;size=15;" vertex="1" parent="1">
          <mxGeometry x="230" y="110" width="60" height="80" as="geometry" />
        </mxCell>
      </root>
    </mxGraphModel>
  </diagram>
</mxfile>
